# Blender v2.75 (sub 0) OBJ File: ''
# www.blender.org
mtllib untitled.mtl
o pCone1.001
v -0.000000 -0.005000 -1.100000
v -0.952628 -0.005000 -0.550000
v -0.866026 -0.004091 -0.500000
v 0.000000 -0.004091 -1.000000
v -0.952628 -0.005000 0.550000
v -0.866025 -0.004091 0.500000
v 0.000000 -0.005000 1.100000
v -0.000000 -0.004091 1.000000
v 0.952628 -0.005000 0.550000
v 0.866025 -0.004091 0.500000
v 0.952628 -0.005000 -0.550000
v 0.866025 -0.004091 -0.500000
v -0.779423 -0.003182 -0.450000
v -0.000000 -0.003182 -0.900000
v -0.779423 -0.003182 0.450000
v 0.000000 -0.003182 0.900000
v 0.779423 -0.003182 0.450000
v 0.779423 -0.003182 -0.450000
vt 0.250000 0.500000
vt 0.333333 0.500000
vt 0.348485 0.545455
vt 0.272727 0.545455
vt 0.416667 0.500000
vt 0.424242 0.545455
vt 0.500000 0.500000
vt 0.500000 0.545455
vt 0.583333 0.500000
vt 0.575758 0.545455
vt 0.666667 0.500000
vt 0.651515 0.545455
vt 0.750000 0.500000
vt 0.727273 0.545455
vt 0.363636 0.590909
vt 0.295455 0.590909
vt 0.431818 0.590909
vt 0.500000 0.590909
vt 0.568182 0.590909
vt 0.636364 0.590909
vt 0.704545 0.590909
vn 0.000000 1.000000 -0.009100
vn -0.007900 1.000000 -0.004500
vn -0.007900 1.000000 0.004500
vn 0.000000 1.000000 0.009100
vn 0.007900 1.000000 0.004500
vn 0.007900 1.000000 -0.004500
usemtl initialShadingGroup.001
s 1
f 1/1/1 2/2/2 3/3/2 4/4/1
f 2/2/2 5/5/3 6/6/3 3/3/2
f 5/5/3 7/7/4 8/8/4 6/6/3
f 7/7/4 9/9/5 10/10/5 8/8/4
f 9/9/5 11/11/6 12/12/6 10/10/5
f 11/11/6 1/13/1 4/14/1 12/12/6
f 4/4/1 3/3/2 13/15/2 14/16/1
f 3/3/2 6/6/3 15/17/3 13/15/2
f 6/6/3 8/8/4 16/18/4 15/17/3
f 8/8/4 10/10/5 17/19/5 16/18/4
f 10/10/5 12/12/6 18/20/6 17/19/5
f 12/12/6 4/14/1 14/21/1 18/20/6
